#!OML:ASF H:\Terrain\Patient Classification 1\Walking\liu\liu.ASF
:FULLY-SPECIFIED
:DEGREES
162
root 16.486099 33.146801 -28.311600 15.985860 19.597139 -1.066012
lowerback -9.813700 -4.415320 -1.855324
upperback -3.991480 -5.876560 7.172420
thorax 1.860936 -2.916920 8.094200
lowerneck -37.726002 -13.968460 -30.072800
upperneck 30.072201 -16.764120 29.582399
head 18.262079 -6.758580 12.909500
rclavicle 0.000000 -0.000000
rhumerus -90.983398 16.327101 -162.623398
rradius 66.148598
rwrist -35.227200
rhand -55.155800 -59.409199
rfingers 14.250040
rthumb -1.956530 -119.364197
lclavicle 0.000000 -0.000000
lhumerus -87.724197 -20.440399 191.682999
lradius 47.863800
lwrist -0.206726
lhand -2.524020 -35.694199
lfingers 14.250040
lthumb 48.762001 21.243601
rfemur -60.310398 2.866700 46.313202
rtibia 63.759998
rfoot -24.200399 -0.322720
rtoes -27.072599
lfemur -8.367260 15.992940 -27.898800
ltibia 105.284203
lfoot 4.975500 25.141199
ltoes -32.273998
163
root 16.458521 33.221401 -28.067801 16.336281 19.372999 -1.440846
lowerback -10.045720 -4.066320 -1.464794
upperback -3.980380 -5.430780 7.178340
thorax 1.949434 -2.695120 7.899420
lowerneck -37.199200 -14.054420 -30.212999
upperneck 29.347200 -16.945101 30.071600
head 17.985960 -6.828680 13.069240
rclavicle 0.000000 -0.000000
rhumerus -90.417198 17.303499 -163.050598
rradius 66.548401
rwrist -36.252998
rhand -56.132801 -57.564400
rfingers 14.250040
rthumb -2.900120 -117.514000
lclavicle 0.000000 -0.000000
lhumerus -88.913002 -22.281401 192.804993
lradius 49.774200
lwrist 2.711760
lhand -0.908746 -35.667198
lfingers 14.250040
lthumb 50.310200 21.058001
rfemur -58.940800 2.466560 47.090199
rtibia 62.087601
rfoot -24.814800 0.524618
rtoes -29.892000
lfemur -11.740380 16.140921 -28.162201
ltibia 108.504997
lfoot 5.020260 26.382999
ltoes -21.070801
164
root 16.449699 33.285400 -27.808800 15.860500 19.042761 -1.949420
lowerback -9.881040 -3.668120 -0.675970
upperback -3.527440 -4.944080 6.983820
thorax 2.246060 -2.459880 7.279320
lowerneck -37.445801 -14.210240 -29.319599
upperneck 29.127001 -17.275040 29.696400
head 17.948959 -6.956700 12.718200
rclavicle 0.000000 -0.000000
rhumerus -89.991600 18.027580 -163.337204
rradius 67.670998
rwrist -37.102200
rhand -56.549801 -54.987400
rfingers 14.250040
rthumb -3.302780 -114.934196
lclavicle 0.000000 -0.000000
lhumerus -89.910599 -24.310801 193.555801
lradius 51.744400
lwrist 6.306240
lhand -1.246250 -36.577400
lfingers 14.250040
lthumb 49.986801 20.192801
rfemur -56.688000 2.410000 47.886002
rtibia 60.618599
rfoot -25.621201 1.238276
rtoes -29.936800
lfemur -14.013140 16.267759 -28.300400
ltibia 111.140198
lfoot 10.495660 27.206200
ltoes 4.455080
165
root 16.439280 33.339199 -27.550400 15.151280 18.555620 -2.186360
lowerback -9.160780 -3.224440 -0.403866
upperback -3.294460 -4.359620 6.975580
thorax 2.034400 -2.167920 7.169580
lowerneck -37.288799 -14.421460 -29.138800
upperneck 29.183201 -17.583441 29.384199
head 17.964041 -7.125480 12.527100
rclavicle -0.000000 0.000000
rhumerus -90.326797 19.245359 -163.275604
rradius 69.846001
rwrist -38.033199
rhand -56.637001 -53.289799
rfingers 14.250040
rthumb -3.387040 -113.235802
lclavicle -0.000000 0.000000
lhumerus -90.925797 -25.444000 194.350800
lradius 53.275799
lwrist 8.703240
lhand -1.657504 -37.277199
lfingers 14.250040
lthumb 49.592602 19.547741
rfemur -54.241402 2.562480 48.374599
rtibia 59.318001
rfoot -26.252800 1.696466
rtoes -29.445200
lfemur -16.049179 16.357981 -28.698400
ltibia 113.384598
lfoot 3.473640 26.308201
ltoes -26.889200
166
root 16.413019 33.389198 -27.306400 15.124020 18.055620 -1.985698
lowerback -8.773620 -2.844480 -0.806936
upperback -3.362960 -3.828500 7.048000
thorax 1.728834 -1.898210 7.513260
lowerneck -37.153599 -14.536960 -29.782000
upperneck 29.437201 -17.656561 29.593800
head 18.080080 -7.181360 12.709420
rclavicle -0.000000 -0.000000
rhumerus -90.487999 20.546200 -163.077805
rradius 71.736801
rwrist -38.652401
rhand -57.278801 -50.451000
rfingers 14.250040
rthumb -4.006960 -110.391602
lclavicle -0.000000 -0.000000
lhumerus -91.787003 -26.319599 195.302994
lradius 54.504799
lwrist 10.561700
lhand -1.857280 -37.887798
lfingers 14.250040
lthumb 49.401199 18.963280
rfemur -52.607399 2.793240 48.411598
rtibia 58.110600
rfoot -26.700399 1.984344
rtoes -30.755800
lfemur -18.844040 16.395121 -29.615400
ltibia 115.430199
lfoot 0.170197 25.407200
ltoes -32.440399
167
root 16.392059 33.430199 -27.067200 15.422500 17.574459 -2.064340
lowerback -9.024240 -2.545040 -0.744962
upperback -3.294940 -3.437220 7.054540
thorax 1.910172 -1.704544 7.500100
lowerneck -37.357399 -14.554760 -30.093800
upperneck 29.336800 -17.628920 29.950001
head 18.113461 -7.145120 12.892960
rclavicle -0.000000 0.000000
rhumerus -89.655197 21.831800 -163.250793
rradius 72.605202
rwrist -39.161999
rhand -58.613998 -48.503399
rfingers 14.250040
rthumb -5.296460 -108.430000
lclavicle -0.000000 0.000000
lhumerus -92.266602 -26.473600 195.449997
lradius 55.737999
lwrist 11.939120
lhand -1.735610 -38.275799
lfingers 14.250040
lthumb 49.517799 18.559361
rfemur -51.393799 3.035920 48.733398
rtibia 57.056198
rfoot -27.124201 2.368960
rtoes -31.043600
lfemur -21.969601 16.683720 -30.259600
ltibia 117.421600
lfoot -1.853572 24.559601
ltoes -25.766199
